<?xml version="1.0" encoding="UTF-8"?>
<svg xmlns="http://www.w3.org/2000/svg" xmlns:xlink="http://www.w3.org/1999/xlink" width="24px" height="24px" viewBox="0 0 24 23" version="1.1">
<g id="surface1">
<path style="fill-rule:nonzero;fill:rgb(100%,100%,100%);fill-opacity:1;stroke-width:5;stroke-linecap:butt;stroke-linejoin:miter;stroke:rgb(36.078431%,36.078431%,36.078431%);stroke-opacity:1;stroke-miterlimit:10;" d="M 124.901374 28.009891 L 124.901374 88.239494 C 123.113931 95.387852 119.518262 101.95267 114.488482 107.329569 C 107.983023 114.123635 99.440711 118.625224 90.170952 120.167435 L 69.864775 120.167435 C 62.5903 120.438364 55.336609 119.312967 48.498603 116.874606 C 37.98179 113.060759 31.497116 106.871073 22.102651 97.763691 C 16.075229 91.865774 10.567412 85.446841 5.662337 78.590253 C 1.048242 72.504771 1.505495 63.960087 6.784685 58.416462 C 11.606623 53.706466 18.922666 52.64359 24.887735 55.790535 L 31.143784 61.917699 L 31.143784 28.530909 C 30.935942 21.903568 35.778664 16.172378 42.346475 15.276228 C 48.166055 14.73437 53.611519 18.152244 55.669157 23.612505 L 55.669157 26.050866 C 55.731509 35.262452 55.773078 42.556695 55.773078 42.556695 L 55.669157 26.050866 C 55.669157 25.238079 55.669157 24.425292 55.669157 23.612505 C 55.066414 14.609326 61.197757 7.81526 67.370669 7.606853 C 73.543581 7.419287 77.78356 14.004946 77.991402 14.234193 L 77.991402 37.930061 L 77.991402 14.234193 C 78.053755 9.982692 80.381587 6.064642 84.122746 4.022254 C 87.863904 1.959025 92.415647 2.084069 96.0321 4.314023 C 99.669338 6.564818 101.789328 10.587072 101.623054 14.838573 C 101.623054 22.403745 101.623054 29.968916 101.623054 37.534088 L 101.623054 23.612505 C 102.703833 18.027199 107.567339 13.984105 113.24143 13.900742 C 120.058652 13.900742 124.111574 20.111269 124.901374 24.36277 C 125.088432 25.57153 125.088432 26.801131 124.901374 28.009891 Z M 124.901374 28.009891 " transform="matrix(0.187943,0,0,0.187434,0.0139277,0)"/>
</g>
</svg>
