<?xml version="1.0" encoding="UTF-8"?>
<svg xmlns="http://www.w3.org/2000/svg" xmlns:xlink="http://www.w3.org/1999/xlink" width="24px" height="24px" viewBox="0 0 24 27" version="1.1">
<g id="surface1">
<path style="fill-rule:nonzero;fill:rgb(100%,100%,100%);fill-opacity:1;stroke-width:5;stroke-linecap:butt;stroke-linejoin:miter;stroke:rgb(36.078431%,36.078431%,36.078431%);stroke-opacity:1;stroke-miterlimit:10;" d="M 130.559644 38.684853 L 130.559644 119.257667 C 128.762256 126.412266 125.189136 132.987364 120.121802 138.358885 C 113.62522 145.134579 105.093042 149.63685 95.824585 151.197043 L 75.511938 151.197043 C 68.235767 151.464504 61.002905 150.327792 54.159839 147.898349 C 42.617578 143.730406 35.709546 136.887846 27.762061 128.797132 C 17.887256 118.722744 9.463354 107.333337 2.75022 94.940948 C 1.732422 89.680869 3.746362 84.309349 7.990796 81.055232 C 12.971509 77.4445 19.684644 77.4445 24.665356 81.055232 L 36.79231 92.934986 L 36.79231 29.658024 C 37.680176 24.130483 42.032886 19.80652 47.55498 18.93727 C 53.09873 18.06802 58.555859 20.854078 61.089526 25.846695 C 61.197803 41.760662 61.327734 57.674629 61.436011 73.588595 L 61.436011 10.579094 C 63.298364 5.363593 68.430664 2.087188 73.931104 2.577534 C 78.4354 3.201611 82.203418 6.299709 83.675977 10.579094 C 83.632666 30.036928 83.589355 49.494761 83.5677 68.997171 C 83.589355 51.166396 83.632666 33.313332 83.675977 15.460269 C 85.386743 10.423075 90.129248 7.01294 95.478101 7.01294 C 100.805298 7.01294 105.569458 10.423075 107.280225 15.460269 L 106.847119 69.353786 L 107.280225 34.22716 C 108.276367 28.499023 113.300391 24.375657 119.104004 24.487099 C 124.907617 24.598541 129.758398 28.900216 130.559644 34.650641 Z M 130.559644 38.684853 " transform="matrix(0.180383,0,0,0.175259,0,0.0287332)"/>
</g>
</svg>
